<?xml version="1.0" encoding="UTF-8"?>
<svg xmlns="http://www.w3.org/2000/svg" viewBox="0 0 1600 500" width="1600" height="500" role="img" aria-label="featherdrop">
  <defs>
    <linearGradient id="fd-gold-name" x1="0" y1="135.36" x2="0" y2="303.37" gradientUnits="userSpaceOnUse">
      <stop offset="0" stop-color="#E0B53A"/>
      <stop offset="0.5" stop-color="#D4AF37"/>
      <stop offset="1" stop-color="#A97C0A"/>
    </linearGradient>
  </defs>
  <rect width="1600" height="500" fill="#0d1117"/>
  <g transform="translate(199.98,37.38) scale(0.43)">
  <defs>
    <linearGradient id="fd-gold" x1="500" y1="0" x2="500" y2="1000" gradientUnits="userSpaceOnUse">
      <stop offset="0" stop-color="#E0B53A"/>
      <stop offset="0.5" stop-color="#D4AF37"/>
      <stop offset="1" stop-color="#A97C0A"/>
    </linearGradient>
  </defs>
  <g fill="url(#fd-gold)">
    <path d="M402.1,314.2c35.5,39.8,69.2,82,99.1,126.3,47.3,70.3,90.3,153.9,102.2,238.9,9.7,69.4-5.1,138.7-26.2,204.4,34.7-19.6,68.9-66.4,83.8-101.6,27.4-64.5,42.2-131.3,31.9-241-14.3,54.5-38.6,83.2-38.6,83.2,8.2-27.5,11.5-56,10-84.8-1.6-29.2-11.1-57.7-9.1-87.1.8-11,4.7-21.3,9.1-31.3-14.3,16.4-24.7,36.5-31.1,57.4-2.1,6.9-3.1,14.4-5.2,21.1s0,2.8-1.8,3.1c-7.9-38.6-13.6-80.9,8.2-116.1-20.3,7.3-29,29.3-33.1,48.9l-4,29.1c0-36.1-7.6-71.6-16.6-106.3l-13.3-44.3,3.7,51.2c-.6,21.5-1.2,43.3-6.7,64.2-1.1,4.1-2.5,10.4-5.2,13.4,4.4-18.4,4.8-36.9,1.5-55.5-8.4-48.2-42-88.8-51.4-136.8l-4.5,16.8c-1.4,19.5,2.6,38.4,9.1,56.7l-5.4-4.1c-59.3-61.7-88.1-146.6-96.2-230.9l6.6,24.7c1.2,3.4,8.7,20.6,11.3,21.5l42.5-5.3,38.1-1c236.9,7.5,413.4,218.3,377.6,453.9-25.6,168.5-162.8,304.6-331.8,327.7l-2.2.2c20.8-47.3,37.2-99,41.2-150.9,10.4-135.8-55.4-248-127.2-356.3l-66-89.5Z"/>
    <path d="M545.9,908.6s-27.2,59.2-19.7,59c7.5-.2,10.6,3.5,17-3.6,4.1-4.2-6.7,16.8-10.7,16s-19.2,2.3-21.2-.5,5.6-27,8.5-37.6c2.9-10.6,14.4-43.2,14.4-43.2l11.7,10Z"/>
    <path d="M400.2,156.3c-8.7-8.2-13.3-22.5-15.1-34.3-5.3-33.9,8.2-100.5,8.2-100.5,0,0-20.8,26.7-30.5,40.6-40.8,59-84.3,141.1-45.3,211.7l17.4,24.8c-18.5-17.3-32.7-39.7-39-64.4,0,0-5.3,29.8,8.4,76s41.6,70.5,88.7,109c-40.9-18.2-79.7-62.4-90.7-72.5,2.3,21.3,13.9,55,36.9,87.7,23,32.7,53.5,69.9,105.5,108.7-22.3-3.8-69.5-49.2-90.8-73.8,31.3,119.2,174.6,209.9,184.2,218-1,1.5-47.7-24.2-86.3-60.1,2.6,34.8,33.4,80.6,56.3,104.6s21,25.9,40.9,35.4c-21.5,1-57.4-39.5-71.8-59,3.3,36.6,22.8,84.2,46.4,113.4,17.4,21.5,34.3,26.8,29.7,59.7-.6,4.4-6.9,28.8-9.2,31l-2,.3c-185.8,20.5-361.6-95.6-416.9-273.1-52.8-169.3,14.2-352.7,162.1-448,16.5-50.1,41.2-97.6,74.9-138.3,6.3-7.6,22.9-27.6,30-32.6s2.5-1.6,2.6-1.4c-.7,13.4-2.9,27-3.6,40.5-.9,18.6-1.1,39.3,2,57.6,2.2,13,7.3,25.4,7,38.8Z"/>
  </g>
</g>
  <path d="M628.84 299.87Q626.32 299.87 624.22 299.58Q622.12 299.31 620.44 299.02L622.54 289.22Q623.38 289.37 624.57 289.50Q625.76 289.64 627.16 289.64Q631.36 289.64 634.23 288.38Q637.10 287.13 638.92 284.88Q640.74 282.64 641.79 279.70Q642.84 276.76 643.40 273.40L654.88 200.46L656.14 202.28L643.40 202.28L644.52 194.58L657.96 192.34L655.72 194.86L657.54 183.80Q659.78 169.80 667.83 163.43Q675.88 157.06 686.94 157.06Q693.52 157.06 700.38 159.30L697.02 168.96Q692.40 167.42 687.92 167.42Q681.76 167.42 677.14 171.06Q672.52 174.70 671.26 182.96L669.44 194.86L667.90 192.63L688.76 192.63L687.08 202.28L666.78 202.28L668.60 200.46L657.54 270.19Q656.42 277.32 654.04 282.85Q651.66 288.38 648.02 292.16Q644.38 295.94 639.55 297.90Q634.72 299.87 628.84 299.87M711.58 267.66Q704.02 267.66 697.86 264.58Q691.70 261.50 688.06 254.92Q684.42 248.34 684.42 237.70Q684.42 228.74 687.15 220.34Q689.88 211.94 695.13 205.22Q700.38 198.50 707.87 194.58Q715.36 190.66 724.88 190.66Q735.66 190.66 741.68 195.63Q747.70 200.60 747.70 208.58Q747.70 215.02 743.78 219.92Q739.86 224.82 733.21 228.18Q726.56 231.54 718.30 233.22Q710.04 234.90 701.36 234.90Q700.10 234.90 698.84 234.90Q697.58 234.90 696.32 234.76L697.16 224.96Q698.84 225.10 700.59 225.24Q702.34 225.38 704.16 225.38Q709.48 225.38 714.87 224.40Q720.26 223.42 724.67 221.46Q729.08 219.50 731.74 216.63Q734.40 213.76 734.40 209.98Q734.40 205.78 731.39 203.26Q728.38 200.74 722.92 200.74Q717.04 200.74 712.35 203.96Q707.66 207.18 704.44 212.57Q701.22 217.96 699.54 224.47Q697.86 230.98 697.86 237.42Q697.86 248.06 702.34 252.82Q706.82 257.58 714.38 257.58Q719.28 257.58 724.81 255.90Q730.34 254.22 735.94 251.14L739.30 258.99Q732.44 263.32 725.37 265.50Q718.30 267.66 711.58 267.66M770.80 267.66Q765.48 267.66 760.93 264.79Q756.38 261.93 753.65 255.83Q750.92 249.74 750.92 239.94Q750.92 229.86 754.07 220.90Q757.22 211.94 762.82 205.15Q768.42 198.36 776.05 194.44Q783.68 190.52 792.50 190.52Q797.96 190.52 803.84 192.34Q809.72 194.16 815.74 198.22L809.72 197.24L812.80 192.06L820.36 192.06L809.16 262.76L804.40 253.94L820.64 258.43L819.38 266.13L796.28 266.82L800.76 240.22L804.82 233.36Q801.88 244.84 796.14 252.47Q790.40 260.10 783.68 263.88Q776.96 267.66 770.80 267.66M776.12 256.46Q779.62 256.46 783.61 254.29Q787.60 252.13 791.24 247.71Q794.88 243.30 797.75 236.72Q800.62 230.14 802.02 221.32L805.10 201.72L807.48 206.48Q803.42 203.68 799.64 202.42Q795.86 201.16 792.22 201.16Q786.20 201.16 781.23 204.24Q776.26 207.32 772.62 212.50Q768.98 217.68 766.95 224.40Q764.92 231.13 764.92 238.40Q764.92 247.78 768.14 252.13Q771.36 256.46 776.12 256.46M849.76 267.66Q842.76 267.66 838.49 263.88Q834.22 260.10 834.22 252.13Q834.22 250.86 834.29 249.67Q834.36 248.48 834.50 247.22L842.06 199.63L843.60 201.72L830.02 201.72L831.28 194.02L845.56 191.50L842.90 194.16L845.98 175.54L859.98 173.16L856.62 194.16L855.36 192.06L876.22 192.06L874.68 201.72L853.54 201.72L855.78 199.63L848.36 246.38Q848.22 246.94 848.15 247.85Q848.08 248.76 848.08 249.74Q848.08 253.66 849.76 255.34Q851.44 257.02 854.52 257.02Q856.76 257.02 859.56 256.19Q862.36 255.34 865.44 253.80L868.52 262.76Q863.34 265.28 858.51 266.47Q853.68 267.66 849.76 267.66M946.22 266.13L921.72 266.82L929.56 218.66Q930.40 213.20 929.63 209.42Q928.86 205.64 926.69 203.68Q924.52 201.72 921.02 201.72Q917.52 201.72 913.60 203.82Q909.68 205.92 905.97 210.12Q902.26 214.32 899.46 220.90Q896.66 227.48 895.12 236.30L890.50 266.26L876.78 266.26L892.60 166.58L894.42 169.24L881.96 166.58L883.22 158.88L907.58 157.90L897.22 217.82L892.18 224.96Q895.54 212.64 901.35 205.08Q907.16 197.52 913.88 194.09Q920.60 190.66 926.76 190.66Q932.78 190.66 936.98 193.60Q941.18 196.54 943.07 202.14Q944.96 207.74 943.56 215.72L936.84 258.28L931.10 253.94L947.48 258.43L946.22 266.13M982.34 267.66Q974.78 267.66 968.62 264.58Q962.46 261.50 958.82 254.92Q955.18 248.34 955.18 237.70Q955.18 228.74 957.91 220.34Q960.64 211.94 965.89 205.22Q971.14 198.50 978.63 194.58Q986.12 190.66 995.64 190.66Q1006.42 190.66 1012.44 195.63Q1018.46 200.60 1018.46 208.58Q1018.46 215.02 1014.54 219.92Q1010.62 224.82 1003.97 228.18Q997.32 231.54 989.06 233.22Q980.80 234.90 972.12 234.90Q970.86 234.90 969.60 234.90Q968.34 234.90 967.08 234.76L967.92 224.96Q969.60 225.10 971.35 225.24Q973.10 225.38 974.92 225.38Q980.24 225.38 985.63 224.40Q991.02 223.42 995.43 221.46Q999.84 219.50 1002.50 216.63Q1005.16 213.76 1005.16 209.98Q1005.16 205.78 1002.15 203.26Q999.14 200.74 993.68 200.74Q987.80 200.74 983.11 203.96Q978.42 207.18 975.20 212.57Q971.98 217.96 970.30 224.47Q968.62 230.98 968.62 237.42Q968.62 248.06 973.10 252.82Q977.58 257.58 985.14 257.58Q990.04 257.58 995.57 255.90Q1001.10 254.22 1006.70 251.14L1010.06 258.99Q1003.20 263.32 996.13 265.50Q989.06 267.66 982.34 267.66M1038.20 266.26L1024.48 266.26L1035.68 195.84L1040.44 204.38L1024.34 199.90L1025.46 192.48L1049.26 191.50L1044.08 217.82L1039.88 224.96Q1042.68 214.04 1048.21 206.34Q1053.74 198.64 1060.53 194.65Q1067.32 190.66 1073.90 190.66Q1077.26 190.66 1079.64 191.64L1075.86 213.62L1067.32 213.62L1067.46 200.04L1069.28 201.58Q1065.36 201.30 1061.30 203.47Q1057.24 205.64 1053.53 210.12Q1049.82 214.60 1047.02 221.18Q1044.22 227.76 1042.82 236.30L1038.20 266.26M1095.46 267.66Q1090.14 267.66 1085.59 264.79Q1081.04 261.93 1078.31 255.83Q1075.58 249.74 1075.58 239.94Q1075.58 229.86 1078.73 220.90Q1081.88 211.94 1087.48 205.15Q1093.08 198.36 1100.71 194.44Q1108.34 190.52 1117.16 190.52Q1122.62 190.52 1128.50 192.34Q1134.38 194.16 1140.40 198.22L1130.74 195.84L1136.06 162.38L1140.82 170.78L1124.44 166.16L1125.56 158.74L1150.34 157.90L1133.82 262.76L1129.06 253.94L1145.30 258.43L1144.04 266.13L1120.94 266.82L1125.42 240.22L1129.48 233.36Q1126.54 244.84 1120.87 252.47Q1115.20 260.10 1108.41 263.88Q1101.62 267.66 1095.46 267.66M1100.78 256.46Q1104.28 256.46 1108.20 254.29Q1112.12 252.13 1115.83 247.71Q1119.54 243.30 1122.34 236.72Q1125.14 230.14 1126.68 221.32L1129.76 202.14L1132.14 206.48Q1128.08 203.68 1124.30 202.42Q1120.52 201.16 1116.88 201.16Q1110.86 201.16 1105.89 204.24Q1100.92 207.32 1097.28 212.50Q1093.64 217.68 1091.61 224.40Q1089.58 231.13 1089.58 238.40Q1089.58 247.78 1092.80 252.13Q1096.02 256.46 1100.78 256.46M1170.08 266.26L1156.36 266.26L1167.56 195.84L1172.32 204.38L1156.22 199.90L1157.34 192.48L1181.14 191.50L1175.96 217.82L1171.76 224.96Q1174.56 214.04 1180.09 206.34Q1185.62 198.64 1192.41 194.65Q1199.20 190.66 1205.78 190.66Q1209.14 190.66 1211.52 191.64L1207.74 213.62L1199.20 213.62L1199.34 200.04L1201.16 201.58Q1197.24 201.30 1193.18 203.47Q1189.12 205.64 1185.41 210.12Q1181.70 214.60 1178.90 221.18Q1176.10 227.76 1174.70 236.30L1170.08 266.26M1235.46 267.66Q1227.34 267.66 1221.11 264.51Q1214.88 261.37 1211.45 254.57Q1208.02 247.78 1208.02 237Q1208.02 228.32 1210.47 220.06Q1212.92 211.80 1217.82 205.15Q1222.72 198.50 1230.14 194.58Q1237.56 190.66 1247.50 190.66Q1255.76 190.66 1261.92 193.81Q1268.08 196.96 1271.58 203.68Q1275.08 210.40 1275.08 221.18Q1275.08 229.86 1272.63 238.19Q1270.18 246.52 1265.28 253.17Q1260.38 259.82 1252.89 263.75Q1245.40 267.66 1235.46 267.66M1237 257.44Q1243.16 257.44 1247.71 253.94Q1252.26 250.44 1255.20 244.91Q1258.14 239.38 1259.61 233.01Q1261.08 226.64 1261.08 220.90Q1261.08 211.38 1257.44 206.13Q1253.80 200.88 1246.10 200.88Q1239.80 200.88 1235.25 204.38Q1230.70 207.88 1227.76 213.41Q1224.82 218.94 1223.42 225.31Q1222.02 231.68 1222.02 237.28Q1222.02 246.80 1225.73 252.13Q1229.44 257.44 1237 257.44M1304.62 298.46L1268.36 298.46L1269.48 291.04L1286.84 286.56L1279.70 294.13L1294.54 200.18L1296.50 202.84L1283.90 199.90L1285.02 192.48L1308.96 191.50L1303.78 218.52L1300.14 224.82Q1303.08 213.34 1308.61 205.71Q1314.14 198.08 1320.79 194.38Q1327.44 190.66 1333.74 190.66Q1339.06 190.66 1343.54 193.46Q1348.02 196.26 1350.75 202.42Q1353.48 208.58 1353.48 218.66Q1353.48 232.10 1348.79 242.32Q1344.10 252.54 1335.63 258.84Q1327.16 265.14 1315.54 266.82Q1303.92 268.50 1290.06 265L1298.18 263.75L1293.28 294.40L1288.38 286.28L1305.74 291.04L1304.62 298.46M1302.38 236.86L1299.02 258.56L1296.08 254.36Q1305.88 257.87 1313.93 256.75Q1321.98 255.63 1327.65 250.79Q1333.32 245.96 1336.40 238.05Q1339.48 230.14 1339.48 220.06Q1339.48 210.26 1336.26 205.99Q1333.04 201.72 1328.28 201.72Q1324.78 201.72 1320.86 203.89Q1316.94 206.06 1313.23 210.47Q1309.52 214.88 1306.65 221.46Q1303.78 228.04 1302.38 236.86" fill="url(#fd-gold-name)"/>
  <path d="M642.25 361.02L649.07 361.02Q650.89 361.02 652.21 360.60Q653.53 360.18 654.38 359.42Q655.23 358.66 655.62 357.62Q656.02 356.57 656.02 355.32Q656.02 352.88 654.28 351.46Q652.54 350.04 649.07 350.04L642.25 350.04L642.25 361.02M648.05 336.25L642.25 336.25L642.25 347L647.88 347Q649.68 347 651.01 346.61Q652.34 346.21 653.21 345.51Q654.08 344.80 654.50 343.80Q654.92 342.80 654.92 341.61Q654.92 338.82 653.25 337.53Q651.57 336.25 648.05 336.25M638 332.88L648.05 332.88Q650.96 332.88 653.06 333.45Q655.16 334.02 656.51 335.08Q657.87 336.14 658.50 337.67Q659.14 339.19 659.14 341.11Q659.14 342.27 658.78 343.34Q658.42 344.41 657.69 345.33Q656.96 346.26 655.85 346.99Q654.74 347.73 653.25 348.19Q656.72 348.85 658.47 350.67Q660.22 352.48 660.22 355.43Q660.22 357.43 659.48 359.08Q658.75 360.73 657.33 361.92Q655.91 363.11 653.84 363.76Q651.77 364.41 649.13 364.41L638 364.41L638 332.88M665.74 342.12L669.66 342.12L669.66 364.41L665.74 364.41L665.74 342.12M670.49 335.12Q670.49 335.70 670.26 336.19Q670.03 336.69 669.65 337.07Q669.26 337.46 668.75 337.68Q668.23 337.90 667.66 337.90Q667.08 337.90 666.59 337.68Q666.09 337.46 665.72 337.07Q665.35 336.69 665.13 336.19Q664.91 335.70 664.91 335.12Q664.91 334.55 665.13 334.04Q665.35 333.52 665.72 333.13Q666.09 332.75 666.59 332.53Q667.08 332.31 667.66 332.31Q668.23 332.31 668.75 332.53Q669.26 332.75 669.65 333.13Q670.03 333.52 670.26 334.04Q670.49 334.55 670.49 335.12M683.85 353.52Q685.04 353.52 685.94 353.19Q686.84 352.86 687.46 352.26Q688.07 351.67 688.38 350.84Q688.69 350.02 688.69 349.03Q688.69 346.98 687.45 345.77Q686.20 344.56 683.85 344.56Q681.47 344.56 680.23 345.77Q678.99 346.98 678.99 349.03Q678.99 350.02 679.31 350.84Q679.62 351.67 680.24 352.26Q680.86 352.86 681.76 353.19Q682.66 353.52 683.85 353.52M690.91 365.62Q690.91 364.80 690.45 364.30Q689.99 363.79 689.21 363.50Q688.42 363.22 687.39 363.10Q686.36 362.98 685.20 362.91Q684.05 362.84 682.86 362.78Q681.67 362.71 680.57 362.56Q679.34 363.13 678.56 364Q677.78 364.87 677.78 366.03Q677.78 366.78 678.16 367.43Q678.55 368.08 679.34 368.55Q680.13 369.03 681.33 369.30Q682.53 369.58 684.16 369.58Q685.74 369.58 686.99 369.29Q688.25 369 689.12 368.48Q689.99 367.95 690.45 367.22Q690.91 366.50 690.91 365.62M688.84 343L694.89 343L694.89 344.45Q694.89 345.18 693.97 345.38L691.44 345.71Q692.19 347.16 692.19 348.92Q692.19 350.55 691.56 351.88Q690.93 353.21 689.83 354.15Q688.73 355.10 687.19 355.61Q685.65 356.11 683.85 356.11Q682.29 356.11 680.90 355.74Q680.20 356.18 679.82 356.67Q679.45 357.17 679.45 357.67Q679.45 358.47 680.10 358.87Q680.75 359.28 681.80 359.46Q682.86 359.63 684.21 359.68Q685.56 359.72 686.98 359.82Q688.40 359.92 689.75 360.16Q691.11 360.40 692.16 360.95Q693.22 361.50 693.87 362.47Q694.52 363.44 694.52 364.98Q694.52 366.41 693.80 367.75Q693.09 369.09 691.75 370.14Q690.40 371.18 688.46 371.81Q686.51 372.44 684.07 372.44Q681.63 372.44 679.80 371.95Q677.97 371.47 676.76 370.65Q675.55 369.84 674.95 368.77Q674.34 367.71 674.34 366.54Q674.34 364.89 675.38 363.75Q676.41 362.60 678.22 361.92Q677.23 361.48 676.64 360.74Q676.06 360.01 676.06 358.75Q676.06 358.27 676.24 357.75Q676.41 357.23 676.77 356.72Q677.14 356.20 677.67 355.74Q678.19 355.28 678.90 354.92Q677.25 354 676.32 352.47Q675.40 350.94 675.40 348.92Q675.40 347.29 676.03 345.96Q676.65 344.63 677.78 343.69Q678.90 342.76 680.45 342.25Q682 341.75 683.85 341.75Q685.30 341.75 686.55 342.06Q687.81 342.38 688.84 343M715.62 364.41L711.68 364.41L711.68 345.46L709.21 345.18Q708.75 345.07 708.46 344.84Q708.16 344.61 708.16 344.17L708.16 342.56L711.68 342.56L711.68 340.40Q711.68 338.49 712.22 337Q712.76 335.52 713.76 334.50Q714.76 333.47 716.17 332.95Q717.57 332.42 719.33 332.42Q720.83 332.42 722.08 332.86L722 334.82Q721.95 335.34 721.41 335.39Q720.87 335.43 719.97 335.43Q718.96 335.43 718.13 335.70Q717.31 335.96 716.72 336.55Q716.12 337.15 715.80 338.12Q715.48 339.08 715.48 340.51L715.48 342.56L721.91 342.56L721.91 345.40L715.62 345.40L715.62 364.41M725.87 342.12L729.78 342.12L729.78 364.41L725.87 364.41L725.87 342.12M730.62 335.12Q730.62 335.70 730.39 336.19Q730.16 336.69 729.77 337.07Q729.39 337.46 728.87 337.68Q728.35 337.90 727.78 337.90Q727.21 337.90 726.72 337.68Q726.22 337.46 725.85 337.07Q725.47 336.69 725.25 336.19Q725.03 335.70 725.03 335.12Q725.03 334.55 725.25 334.04Q725.47 333.52 725.85 333.13Q726.22 332.75 726.72 332.53Q727.21 332.31 727.78 332.31Q728.35 332.31 728.87 332.53Q729.39 332.75 729.77 333.13Q730.16 333.52 730.39 334.04Q730.62 334.55 730.62 335.12M736.34 332L740.26 332L740.26 364.41L736.34 364.41L736.34 332M749.32 350.83L761.51 350.83Q761.51 349.47 761.12 348.34Q760.74 347.20 760 346.38Q759.26 345.55 758.21 345.10Q757.15 344.65 755.81 344.65Q752.99 344.65 751.36 346.29Q749.72 347.93 749.32 350.83M763.58 359.85L764.68 361.28Q763.95 362.16 762.94 362.81Q761.93 363.46 760.77 363.88Q759.62 364.30 758.38 364.50Q757.15 364.71 755.94 364.71Q753.63 364.71 751.69 363.93Q749.74 363.15 748.32 361.64Q746.90 360.14 746.11 357.92Q745.32 355.69 745.32 352.81Q745.32 350.48 746.03 348.46Q746.75 346.43 748.09 344.95Q749.43 343.46 751.37 342.62Q753.30 341.77 755.72 341.77Q757.72 341.77 759.43 342.44Q761.13 343.11 762.38 344.38Q763.62 345.64 764.32 347.50Q765.03 349.36 765.03 351.73Q765.03 352.66 764.83 352.97Q764.63 353.27 764.08 353.27L749.19 353.27Q749.25 355.39 749.77 356.95Q750.29 358.51 751.21 359.56Q752.14 360.60 753.41 361.12Q754.69 361.63 756.27 361.63Q757.75 361.63 758.81 361.29Q759.88 360.95 760.65 360.56Q761.42 360.16 761.94 359.82Q762.45 359.48 762.83 359.48Q763.31 359.48 763.58 359.85M783.68 344.36L782.80 345.79Q782.54 346.28 781.99 346.28Q781.66 346.28 781.24 346.04Q780.82 345.79 780.22 345.50Q779.61 345.20 778.78 344.95Q777.94 344.69 776.80 344.69Q775.81 344.69 775.02 344.95Q774.22 345.20 773.66 345.64Q773.10 346.08 772.80 346.66Q772.51 347.25 772.51 347.93Q772.51 348.79 773 349.36Q773.50 349.93 774.31 350.35Q775.13 350.77 776.16 351.08Q777.19 351.40 778.28 351.77Q779.37 352.13 780.41 352.57Q781.44 353.01 782.25 353.67Q783.07 354.33 783.56 355.29Q784.06 356.24 784.06 357.59Q784.06 359.13 783.51 360.44Q782.96 361.74 781.88 362.70Q780.80 363.66 779.24 364.21Q777.68 364.76 775.63 364.76Q773.30 364.76 771.41 364Q769.52 363.24 768.20 362.05L769.12 360.56Q769.30 360.27 769.54 360.12Q769.78 359.96 770.15 359.96Q770.55 359.96 770.99 360.27Q771.43 360.58 772.06 360.95Q772.68 361.33 773.59 361.63Q774.49 361.94 775.83 361.94Q776.97 361.94 777.83 361.64Q778.69 361.35 779.26 360.84Q779.83 360.34 780.11 359.68Q780.38 359.02 780.38 358.27Q780.38 357.34 779.89 356.74Q779.39 356.13 778.58 355.70Q777.77 355.28 776.72 354.96Q775.68 354.64 774.59 354.29Q773.50 353.93 772.45 353.48Q771.41 353.03 770.59 352.35Q769.78 351.67 769.28 350.67Q768.79 349.67 768.79 348.24Q768.79 346.96 769.32 345.78Q769.85 344.61 770.86 343.72Q771.87 342.82 773.34 342.30Q774.82 341.77 776.71 341.77Q778.91 341.77 780.66 342.46Q782.41 343.15 783.68 344.36M789.29 370.37L788.63 369.73Q788.46 369.58 788.39 369.44Q788.33 369.31 788.33 369.11Q788.33 368.96 788.42 368.81Q788.52 368.65 788.66 368.52Q788.88 368.28 789.22 367.88Q789.56 367.49 789.91 366.95Q790.26 366.41 790.56 365.76Q790.86 365.11 790.99 364.38Q790.92 364.41 790.85 364.41Q790.77 364.41 790.70 364.41Q789.56 364.41 788.84 363.65Q788.13 362.89 788.13 361.70Q788.13 360.67 788.84 359.94Q789.56 359.21 790.75 359.21Q791.41 359.21 791.91 359.46Q792.42 359.70 792.76 360.13Q793.10 360.56 793.28 361.12Q793.45 361.68 793.45 362.34Q793.45 363.33 793.18 364.39Q792.90 365.46 792.36 366.51Q791.82 367.55 791.05 368.54Q790.28 369.53 789.29 370.37M825.51 342.12L825.51 343.79Q825.51 344.21 825.36 344.61Q825.22 345 824.98 345.29L812.90 361.35L825.09 361.35L825.09 364.41L808.30 364.41L808.30 362.78Q808.30 362.49 808.43 362.11Q808.57 361.72 808.83 361.37L820.97 345.20L808.98 345.20L808.98 342.12L825.51 342.12M832.74 350.83L844.93 350.83Q844.93 349.47 844.55 348.34Q844.16 347.20 843.42 346.38Q842.69 345.55 841.63 345.10Q840.58 344.65 839.23 344.65Q836.42 344.65 834.78 346.29Q833.14 347.93 832.74 350.83M847 359.85L848.10 361.28Q847.37 362.16 846.36 362.81Q845.35 363.46 844.19 363.88Q843.04 364.30 841.81 364.50Q840.58 364.71 839.37 364.71Q837.06 364.71 835.11 363.93Q833.16 363.15 831.74 361.64Q830.32 360.14 829.53 357.92Q828.74 355.69 828.74 352.81Q828.74 350.48 829.46 348.46Q830.17 346.43 831.51 344.95Q832.85 343.46 834.79 342.62Q836.73 341.77 839.15 341.77Q841.15 341.77 842.85 342.44Q844.56 343.11 845.80 344.38Q847.04 345.64 847.75 347.50Q848.45 349.36 848.45 351.73Q848.45 352.66 848.25 352.97Q848.06 353.27 847.51 353.27L832.61 353.27Q832.68 355.39 833.19 356.95Q833.71 358.51 834.64 359.56Q835.56 360.60 836.84 361.12Q838.11 361.63 839.70 361.63Q841.17 361.63 842.24 361.29Q843.30 360.95 844.07 360.56Q844.84 360.16 845.36 359.82Q845.88 359.48 846.25 359.48Q846.74 359.48 847 359.85M856.70 343.20L856.97 346.59Q858.02 344.30 859.56 343.01Q861.10 341.72 863.32 341.72Q864.03 341.72 864.68 341.88Q865.33 342.03 865.83 342.36L865.55 345.29Q865.41 345.84 864.89 345.84Q864.58 345.84 863.98 345.71Q863.39 345.57 862.64 345.57Q861.59 345.57 860.76 345.88Q859.94 346.19 859.29 346.80Q858.64 347.40 858.12 348.29Q857.60 349.18 857.19 350.33L857.19 364.41L853.25 364.41L853.25 342.12L855.49 342.12Q856.13 342.12 856.37 342.36Q856.61 342.60 856.70 343.20M878.66 341.77Q881.10 341.77 883.06 342.58Q885.02 343.40 886.40 344.89Q887.79 346.39 888.52 348.51Q889.26 350.63 889.26 353.25Q889.26 355.89 888.52 358Q887.79 360.12 886.40 361.61Q885.02 363.11 883.06 363.91Q881.10 364.71 878.66 364.71Q876.19 364.71 874.22 363.91Q872.26 363.11 870.87 361.61Q869.48 360.12 868.75 358Q868.01 355.89 868.01 353.25Q868.01 350.63 868.75 348.51Q869.48 346.39 870.87 344.89Q872.26 343.40 874.22 342.58Q876.19 341.77 878.66 341.77M878.66 361.66Q881.96 361.66 883.59 359.44Q885.21 357.23 885.21 353.27Q885.21 349.29 883.59 347.07Q881.96 344.85 878.66 344.85Q876.99 344.85 875.74 345.42Q874.50 345.99 873.67 347.07Q872.85 348.15 872.44 349.72Q872.04 351.29 872.04 353.27Q872.04 357.23 873.67 359.44Q875.31 361.66 878.66 361.66M909.41 348.26L909.41 359.04Q910.49 360.49 911.78 361.08Q913.07 361.68 914.61 361.68Q917.75 361.68 919.42 359.46Q921.10 357.23 921.10 352.83Q921.10 348.74 919.61 346.82Q918.13 344.89 915.38 344.89Q913.46 344.89 912.04 345.77Q910.62 346.65 909.41 348.26M909.41 332L909.41 345.33Q910.82 343.70 912.59 342.74Q914.36 341.77 916.67 341.77Q918.63 341.77 920.20 342.52Q921.78 343.26 922.88 344.68Q923.98 346.10 924.56 348.13Q925.14 350.15 925.14 352.68Q925.14 355.39 924.48 357.61Q923.82 359.83 922.58 361.40Q921.34 362.98 919.56 363.85Q917.77 364.71 915.55 364.71Q913.35 364.71 911.84 363.89Q910.34 363.06 909.22 361.55L909.02 363.57Q908.84 364.41 908.01 364.41L905.48 364.41L905.48 332L909.41 332M942.19 358.99L942.19 354.37Q939.49 354.46 937.58 354.80Q935.68 355.14 934.48 355.69Q933.28 356.24 932.74 356.99Q932.21 357.74 932.21 358.66Q932.21 359.54 932.49 360.18Q932.78 360.82 933.27 361.23Q933.77 361.63 934.44 361.82Q935.11 362.01 935.88 362.01Q936.91 362.01 937.77 361.80Q938.63 361.59 939.39 361.19Q940.15 360.80 940.84 360.25Q941.53 359.70 942.19 358.99M930.25 346.52L929.54 345.27Q931.39 343.48 933.53 342.60Q935.66 341.72 938.26 341.72Q940.13 341.72 941.58 342.34Q943.03 342.96 944.02 344.06Q945.01 345.16 945.52 346.72Q946.02 348.28 946.02 350.15L946.02 364.41L944.28 364.41Q943.71 364.41 943.40 364.22Q943.10 364.03 942.92 363.48L942.48 361.37Q941.60 362.18 940.76 362.81Q939.93 363.44 939 363.87Q938.08 364.30 937.03 364.53Q935.99 364.76 934.71 364.76Q933.42 364.76 932.27 364.39Q931.13 364.03 930.28 363.31Q929.43 362.58 928.94 361.47Q928.44 360.36 928.44 358.84Q928.44 357.52 929.17 356.30Q929.90 355.08 931.52 354.13Q933.15 353.19 935.77 352.58Q938.39 351.98 942.19 351.89L942.19 350.15Q942.19 347.55 941.07 346.22Q939.95 344.89 937.79 344.89Q936.34 344.89 935.36 345.25Q934.38 345.62 933.67 346.07Q932.95 346.52 932.44 346.88Q931.92 347.25 931.41 347.25Q931.02 347.25 930.73 347.04Q930.45 346.83 930.25 346.52M959.75 353.52Q960.94 353.52 961.84 353.19Q962.74 352.86 963.36 352.26Q963.97 351.67 964.28 350.84Q964.59 350.02 964.59 349.03Q964.59 346.98 963.35 345.77Q962.10 344.56 959.75 344.56Q957.37 344.56 956.13 345.77Q954.89 346.98 954.89 349.03Q954.89 350.02 955.21 350.84Q955.53 351.67 956.14 352.26Q956.76 352.86 957.66 353.19Q958.56 353.52 959.75 353.52M966.81 365.62Q966.81 364.80 966.35 364.30Q965.89 363.79 965.11 363.50Q964.33 363.22 963.29 363.10Q962.26 362.98 961.10 362.91Q959.95 362.84 958.76 362.78Q957.57 362.71 956.47 362.56Q955.24 363.13 954.46 364Q953.68 364.87 953.68 366.03Q953.68 366.78 954.06 367.43Q954.45 368.08 955.24 368.55Q956.03 369.03 957.23 369.30Q958.43 369.58 960.06 369.58Q961.64 369.58 962.90 369.29Q964.15 369 965.02 368.48Q965.89 367.95 966.35 367.22Q966.81 366.50 966.81 365.62M964.74 343L970.79 343L970.79 344.45Q970.79 345.18 969.87 345.38L967.34 345.71Q968.09 347.16 968.09 348.92Q968.09 350.55 967.46 351.88Q966.83 353.21 965.73 354.15Q964.63 355.10 963.09 355.61Q961.55 356.11 959.75 356.11Q958.19 356.11 956.80 355.74Q956.10 356.18 955.72 356.67Q955.35 357.17 955.35 357.67Q955.35 358.47 956 358.87Q956.65 359.28 957.70 359.46Q958.76 359.63 960.11 359.68Q961.47 359.72 962.88 359.82Q964.30 359.92 965.66 360.16Q967.01 360.40 968.07 360.95Q969.12 361.50 969.77 362.47Q970.42 363.44 970.42 364.98Q970.42 366.41 969.70 367.75Q968.99 369.09 967.65 370.14Q966.31 371.18 964.36 371.81Q962.41 372.44 959.97 372.44Q957.53 372.44 955.70 371.95Q953.88 371.47 952.67 370.65Q951.46 369.84 950.85 368.77Q950.25 367.71 950.25 366.54Q950.25 364.89 951.28 363.75Q952.31 362.60 954.12 361.92Q953.13 361.48 952.54 360.74Q951.96 360.01 951.96 358.75Q951.96 358.27 952.14 357.75Q952.31 357.23 952.68 356.72Q953.04 356.20 953.57 355.74Q954.10 355.28 954.80 354.92Q953.15 354 952.23 352.47Q951.30 350.94 951.30 348.92Q951.30 347.29 951.93 345.96Q952.56 344.63 953.68 343.69Q954.80 342.76 956.35 342.25Q957.90 341.75 959.75 341.75Q961.20 341.75 962.46 342.06Q963.71 342.38 964.74 343M982.63 353.52Q983.82 353.52 984.72 353.19Q985.62 352.86 986.24 352.26Q986.85 351.67 987.16 350.84Q987.47 350.02 987.47 349.03Q987.47 346.98 986.23 345.77Q984.98 344.56 982.63 344.56Q980.25 344.56 979.01 345.77Q977.77 346.98 977.77 349.03Q977.77 350.02 978.09 350.84Q978.41 351.67 979.02 352.26Q979.64 352.86 980.54 353.19Q981.44 353.52 982.63 353.52M989.69 365.62Q989.69 364.80 989.23 364.30Q988.77 363.79 987.99 363.50Q987.21 363.22 986.17 363.10Q985.14 362.98 983.98 362.91Q982.83 362.84 981.64 362.78Q980.45 362.71 979.35 362.56Q978.12 363.13 977.34 364Q976.56 364.87 976.56 366.03Q976.56 366.78 976.94 367.43Q977.33 368.08 978.12 368.55Q978.91 369.03 980.11 369.30Q981.31 369.58 982.94 369.58Q984.52 369.58 985.78 369.29Q987.03 369 987.90 368.48Q988.77 367.95 989.23 367.22Q989.69 366.50 989.69 365.62M987.62 343L993.67 343L993.67 344.45Q993.67 345.18 992.75 345.38L990.22 345.71Q990.97 347.16 990.97 348.92Q990.97 350.55 990.34 351.88Q989.71 353.21 988.61 354.15Q987.51 355.10 985.97 355.61Q984.43 356.11 982.63 356.11Q981.07 356.11 979.68 355.74Q978.98 356.18 978.60 356.67Q978.23 357.17 978.23 357.67Q978.23 358.47 978.88 358.87Q979.53 359.28 980.58 359.46Q981.64 359.63 982.99 359.68Q984.35 359.72 985.76 359.82Q987.18 359.92 988.54 360.16Q989.89 360.40 990.95 360.95Q992 361.50 992.65 362.47Q993.30 363.44 993.30 364.98Q993.30 366.41 992.58 367.75Q991.87 369.09 990.53 370.14Q989.19 371.18 987.24 371.81Q985.29 372.44 982.85 372.44Q980.41 372.44 978.58 371.95Q976.76 371.47 975.55 370.65Q974.34 369.84 973.73 368.77Q973.13 367.71 973.13 366.54Q973.13 364.89 974.16 363.75Q975.19 362.60 977 361.92Q976.01 361.48 975.42 360.74Q974.84 360.01 974.84 358.75Q974.84 358.27 975.02 357.75Q975.19 357.23 975.56 356.72Q975.92 356.20 976.45 355.74Q976.98 355.28 977.68 354.92Q976.03 354 975.11 352.47Q974.18 350.94 974.18 348.92Q974.18 347.29 974.81 345.96Q975.44 344.63 976.56 343.69Q977.68 342.76 979.23 342.25Q980.78 341.75 982.63 341.75Q984.08 341.75 985.34 342.06Q986.59 342.38 987.62 343M1009.82 358.99L1009.82 354.37Q1007.12 354.46 1005.21 354.80Q1003.31 355.14 1002.11 355.69Q1000.91 356.24 1000.37 356.99Q999.83 357.74 999.83 358.66Q999.83 359.54 1000.12 360.18Q1000.41 360.82 1000.90 361.23Q1001.40 361.63 1002.07 361.82Q1002.74 362.01 1003.51 362.01Q1004.54 362.01 1005.40 361.80Q1006.26 361.59 1007.02 361.19Q1007.78 360.80 1008.47 360.25Q1009.16 359.70 1009.82 358.99M997.88 346.52L997.17 345.27Q999.02 343.48 1001.15 342.60Q1003.29 341.72 1005.88 341.72Q1007.75 341.72 1009.21 342.34Q1010.66 342.96 1011.65 344.06Q1012.64 345.16 1013.14 346.72Q1013.65 348.28 1013.65 350.15L1013.65 364.41L1011.91 364.41Q1011.34 364.41 1011.03 364.22Q1010.72 364.03 1010.55 363.48L1010.11 361.37Q1009.23 362.18 1008.39 362.81Q1007.56 363.44 1006.63 363.87Q1005.71 364.30 1004.66 364.53Q1003.62 364.76 1002.34 364.76Q1001.04 364.76 999.90 364.39Q998.76 364.03 997.91 363.31Q997.06 362.58 996.57 361.47Q996.07 360.36 996.07 358.84Q996.07 357.52 996.80 356.30Q997.52 355.08 999.15 354.13Q1000.78 353.19 1003.40 352.58Q1006.02 351.98 1009.82 351.89L1009.82 350.15Q1009.82 347.55 1008.70 346.22Q1007.58 344.89 1005.42 344.89Q1003.97 344.89 1002.99 345.25Q1002.01 345.62 1001.30 346.07Q1000.58 346.52 1000.06 346.88Q999.55 347.25 999.04 347.25Q998.65 347.25 998.36 347.04Q998.07 346.83 997.88 346.52M1027.38 353.52Q1028.57 353.52 1029.47 353.19Q1030.37 352.86 1030.99 352.26Q1031.60 351.67 1031.91 350.84Q1032.22 350.02 1032.22 349.03Q1032.22 346.98 1030.97 345.77Q1029.73 344.56 1027.38 344.56Q1025 344.56 1023.76 345.77Q1022.52 346.98 1022.52 349.03Q1022.52 350.02 1022.84 350.84Q1023.15 351.67 1023.77 352.26Q1024.39 352.86 1025.29 353.19Q1026.19 353.52 1027.38 353.52M1034.44 365.62Q1034.44 364.80 1033.98 364.30Q1033.52 363.79 1032.73 363.50Q1031.95 363.22 1030.92 363.10Q1029.89 362.98 1028.73 362.91Q1027.58 362.84 1026.39 362.78Q1025.20 362.71 1024.10 362.56Q1022.87 363.13 1022.09 364Q1021.31 364.87 1021.31 366.03Q1021.31 366.78 1021.69 367.43Q1022.08 368.08 1022.87 368.55Q1023.66 369.03 1024.86 369.30Q1026.06 369.58 1027.69 369.58Q1029.27 369.58 1030.52 369.29Q1031.78 369 1032.65 368.48Q1033.52 367.95 1033.98 367.22Q1034.44 366.50 1034.44 365.62M1032.37 343L1038.42 343L1038.42 344.45Q1038.42 345.18 1037.50 345.38L1034.97 345.71Q1035.72 347.16 1035.72 348.92Q1035.72 350.55 1035.09 351.88Q1034.46 353.21 1033.36 354.15Q1032.26 355.10 1030.72 355.61Q1029.18 356.11 1027.38 356.11Q1025.82 356.11 1024.43 355.74Q1023.73 356.18 1023.35 356.67Q1022.98 357.17 1022.98 357.67Q1022.98 358.47 1023.63 358.87Q1024.28 359.28 1025.33 359.46Q1026.39 359.63 1027.74 359.68Q1029.09 359.72 1030.51 359.82Q1031.93 359.92 1033.29 360.16Q1034.64 360.40 1035.69 360.95Q1036.75 361.50 1037.40 362.47Q1038.05 363.44 1038.05 364.98Q1038.05 366.41 1037.33 367.75Q1036.62 369.09 1035.28 370.14Q1033.93 371.18 1031.99 371.81Q1030.04 372.44 1027.60 372.44Q1025.16 372.44 1023.33 371.95Q1021.50 371.47 1020.29 370.65Q1019.08 369.84 1018.48 368.77Q1017.87 367.71 1017.87 366.54Q1017.87 364.89 1018.91 363.75Q1019.94 362.60 1021.75 361.92Q1020.76 361.48 1020.17 360.74Q1019.59 360.01 1019.59 358.75Q1019.59 358.27 1019.77 357.75Q1019.94 357.23 1020.30 356.72Q1020.67 356.20 1021.20 355.74Q1021.72 355.28 1022.43 354.92Q1020.78 354 1019.85 352.47Q1018.93 350.94 1018.93 348.92Q1018.93 347.29 1019.56 345.96Q1020.18 344.63 1021.31 343.69Q1022.43 342.76 1023.98 342.25Q1025.53 341.75 1027.38 341.75Q1028.83 341.75 1030.08 342.06Q1031.34 342.38 1032.37 343M1045.22 350.83L1057.41 350.83Q1057.41 349.47 1057.02 348.34Q1056.64 347.20 1055.90 346.38Q1055.16 345.55 1054.11 345.10Q1053.05 344.65 1051.71 344.65Q1048.89 344.65 1047.26 346.29Q1045.62 347.93 1045.22 350.83M1059.48 359.85L1060.58 361.28Q1059.85 362.16 1058.84 362.81Q1057.83 363.46 1056.67 363.88Q1055.52 364.30 1054.28 364.50Q1053.05 364.71 1051.84 364.71Q1049.53 364.71 1047.59 363.93Q1045.64 363.15 1044.22 361.64Q1042.80 360.14 1042.01 357.92Q1041.22 355.69 1041.22 352.81Q1041.22 350.48 1041.93 348.46Q1042.65 346.43 1043.99 344.95Q1045.33 343.46 1047.27 342.62Q1049.20 341.77 1051.62 341.77Q1053.62 341.77 1055.33 342.44Q1057.03 343.11 1058.28 344.38Q1059.52 345.64 1060.22 347.50Q1060.93 349.36 1060.93 351.73Q1060.93 352.66 1060.73 352.97Q1060.53 353.27 1059.98 353.27L1045.09 353.27Q1045.15 355.39 1045.67 356.95Q1046.19 358.51 1047.11 359.56Q1048.04 360.60 1049.31 361.12Q1050.59 361.63 1052.17 361.63Q1053.65 361.63 1054.71 361.29Q1055.78 360.95 1056.55 360.56Q1057.32 360.16 1057.84 359.82Q1058.35 359.48 1058.73 359.48Q1059.21 359.48 1059.48 359.85M1065.06 361.99Q1065.06 361.41 1065.27 360.91Q1065.48 360.40 1065.85 360.03Q1066.21 359.65 1066.71 359.43Q1067.22 359.21 1067.79 359.21Q1068.36 359.21 1068.87 359.43Q1069.38 359.65 1069.75 360.03Q1070.12 360.40 1070.34 360.91Q1070.56 361.41 1070.56 361.99Q1070.56 362.58 1070.34 363.07Q1070.12 363.57 1069.75 363.94Q1069.38 364.32 1068.87 364.53Q1068.36 364.74 1067.79 364.74Q1067.22 364.74 1066.71 364.53Q1066.21 364.32 1065.85 363.94Q1065.48 363.57 1065.27 363.07Q1065.06 362.58 1065.06 361.99" fill="#9aa4ad"/>
</svg>
